<mxfile host="app.diagrams.net" modified="2024-08-28T05:14:09.017Z" agent="Mozilla/5.0 (Macintosh; Intel Mac OS X 10_15_7) AppleWebKit/537.36 (KHTML, like Gecko) Chrome/127.0.0.0 Safari/537.36" version="21.7.2" etag="oI1d-YTsULeF_K_EFOF8" type="github">
  <diagram name="페이지-1" id="Nu-nzxty6pSRu8hdQnao">
    <mxGraphModel>
      <root>
        <mxCell id="0" />
        <mxCell id="1" parent="0" />
      </root>
    </mxGraphModel>
  </diagram>
</mxfile>
